<svg width="50" height="50" fill="none" xmlns="http://www.w3.org/2000/svg"><rect width="50" height="50" rx="9" fill="#D9D9D9"/><rect width="50" height="50" rx="9" fill="url(#paint0_linear_1_364)"/><path d="M16.425 8.83a.725.725 0 00-.458-.67.528.528 0 00-.269-.051H12.34a.515.515 0 00-.268.05.725.725 0 00-.459.67v15.302l4.812-1.04V8.83zM27.4 12.742a.723.723 0 00-.72-.721h-3.365a.723.723 0 00-.72.72v9.015l4.805-1.034v-7.98zm10.987 0a.724.724 0 00-.727-.721h-3.358a.724.724 0 00-.727.72v6.65l4.812-1.039v-5.61zm3.727 6.46a2.831 2.831 0 00-2.39-.566l-19.631 4.232a.281.281 0 00-.05.016L9.074 25.25a2.863 2.863 0 00-2.247 2.783v12.684c0 .648.527 1.173 1.175 1.173H42a1.175 1.175 0 001.174-1.173V21.42a2.835 2.835 0 00-1.06-2.217zM19.08 40.773h-8.23v-9.784a1.615 1.615 0 011.614-1.61h5.012a1.61 1.61 0 011.604 1.61v9.785zm12.615-3.834a.889.889 0 01-.888.888h-3.402a.89.89 0 01-.889-.888v-3.41a.888.888 0 01.889-.888h3.402a.889.889 0 01.888.889v3.41zm0-6.571a.889.889 0 01-.888.889h-3.402a.888.888 0 01-.889-.89v-3.408c0-.49.398-.887.889-.887h3.402c.49 0 .888.396.888.887v3.409zm6.526 6.571a.889.889 0 01-.888.888H33.93a.889.889 0 01-.889-.888v-3.41a.888.888 0 01.889-.888h3.402a.889.889 0 01.888.889v3.41zm0-6.571a.889.889 0 01-.888.889H33.93a.888.888 0 01-.889-.89v-3.408c0-.49.398-.887.889-.887h3.402c.49 0 .888.396.888.887v3.409z" fill="#000"/><defs><linearGradient id="paint0_linear_1_364" x1="25" y1="0" x2="25" y2="50" gradientUnits="userSpaceOnUse"><stop stop-color="#C5AA64"/><stop offset="1" stop-color="#FAF29F"/></linearGradient></defs></svg>