<svg width="50" height="50" fill="none" xmlns="http://www.w3.org/2000/svg"><path d="M40.734 0H9.266A9.283 9.283 0 000 9.266v31.468A9.283 9.283 0 009.266 50h31.468A9.283 9.283 0 0050 40.734V9.266A9.283 9.283 0 0040.734 0zm-7.203 16.932l-3.715 1.95a2.38 2.38 0 00-1.32 2.132v18.357h-6.992V29.126a2.37 2.37 0 00-1.286-2.116l-4.37-2.29V6.766a1.346 1.346 0 011.346-1.346h14.983a1.355 1.355 0 011.355 1.346v10.166zm4.887-1.39a1.355 1.355 0 011.328.044 1.32 1.32 0 01.647 1.153v22.597H29.58V20.979a1.347 1.347 0 01.726-1.197l8.112-4.24zM19.694 27.937a1.338 1.338 0 01.726 1.189v10.21H9.607V24.85a1.338 1.338 0 01.647-1.153 1.354 1.354 0 011.328 0l8.112 4.24z" fill="url(#paint0_linear_1_359)"/><defs><linearGradient id="paint0_linear_1_359" x1="25" y1="0" x2="25" y2="50" gradientUnits="userSpaceOnUse"><stop stop-color="#C5AA64"/><stop offset="1" stop-color="#FAF29F"/></linearGradient></defs></svg>