<svg width="50" height="50" fill="none" xmlns="http://www.w3.org/2000/svg"><rect width="50" height="50" rx="9" fill="#D9D9D9"/><rect width="50" height="50" rx="9" fill="url(#paint0_linear_1_360)"/><path d="M38.333 16h-6.666v-1.333A2.67 2.67 0 0029 12h-8a2.67 2.67 0 00-2.667 2.667V16h-6.666A2.67 2.67 0 009 18.667v4a2.67 2.67 0 002.667 2.666h10.666v-.666A.667.667 0 0123 24h4a.665.665 0 01.667.667v.666h10.666A2.67 2.67 0 0041 22.667v-4A2.67 2.67 0 0038.333 16zM29 16h-8v-1.333h8V16zm11.63 10.053a.667.667 0 00-.7.066 2.633 2.633 0 01-1.597.548H27.667v2a.668.668 0 01-.667.666h-4a.665.665 0 01-.667-.666v-2H11.667c-.572 0-1.124-.19-1.598-.549a.662.662 0 00-.97.18.667.667 0 00-.099.352V36a2.67 2.67 0 002.667 2.667h26.666A2.67 2.67 0 0041 36v-9.35a.667.667 0 00-.37-.597z" fill="#000"/><defs><linearGradient id="paint0_linear_1_360" x1="25" y1="0" x2="25" y2="50" gradientUnits="userSpaceOnUse"><stop stop-color="#C5AA64"/><stop offset="1" stop-color="#FAF29F"/></linearGradient></defs></svg>