<svg width="30" height="30" fill="none" xmlns="http://www.w3.org/2000/svg"><path d="M28.25 30c-3.472 0-6.91-.75-10.312-2.25-3.402-1.5-6.492-3.639-9.271-6.417-2.778-2.777-4.917-5.86-6.417-9.25C.75 8.694 0 5.25 0 1.75V0h9.833l1.542 8.375-4.75 4.792a25.766 25.766 0 002.042 3.083c.75.972 1.555 1.875 2.416 2.708a26.985 26.985 0 002.647 2.314 27.9 27.9 0 003.103 2.061l4.834-4.833L30 20.208V30h-1.75z" fill="url(#paint0_linear_1_195)"/><defs><linearGradient id="paint0_linear_1_195" x1="15" y1="0" x2="15" y2="30" gradientUnits="userSpaceOnUse"><stop stop-color="#C5AA64"/><stop offset="1" stop-color="#FAF29F"/></linearGradient></defs></svg>