<?xml version="1.0" encoding="utf-8"?><svg viewBox="0 0 105 105" xmlns="http://www.w3.org/2000/svg" xmlns:xlink="http://www.w3.org/1999/xlink"><style>:root>svg{display:none}:root>svg:target{display:block}</style><svg fill="none" viewBox="0 0 105 105" id="icon-arrow-top" xmlns="http://www.w3.org/2000/svg"><path d="M78.022 70.383a1.642 1.642 0 01-1.642-1.642V30.939L28.138 79.182a1.64 1.64 0 01-2.32-2.32L74.06 28.619H36.258a1.641 1.641 0 010-3.283h41.764a1.642 1.642 0 011.641 1.642V68.74a1.643 1.643 0 01-1.641 1.642z" fill="currentColor"/></svg><svg fill="none" viewBox="0 0 92 64" id="icon-eye" xmlns="http://www.w3.org/2000/svg"><path d="M46 19.5a12.5 12.5 0 100 25 12.5 12.5 0 000-25zm0 33.333a20.833 20.833 0 110-41.666 20.833 20.833 0 010 41.666zM46 .75C25.167.75 7.375 13.708.167 32c7.208 18.292 25 31.25 45.833 31.25S84.625 50.292 91.833 32C84.625 13.708 66.833.75 46 .75z" fill="#fff"/></svg></svg>